Coordinates
version=1
nRows=10
nColumns=28
inDegrees=yes

Units are S.I. units (second, meters, Newtons, ...)
If the header above contains a line with 'inDegrees', this indicates whether rotational values are in degrees (yes) or radians (no).

endheader
time	pelvis_tilt	pelvis_list	pelvis_rotation	pelvis_tx	pelvis_ty	pelvis_tz	hip_flexion_r	hip_adduction_r	hip_rotation_r	knee_angle_r	knee_angle_r_ie	knee_angle_r_vv	ankle_angle_r	subtalar_angle_r	mtp_angle_r	hip_flexion_l	hip_adduction_l	hip_rotation_l	knee_angle_l	knee_angle_l_ie	knee_angle_l_vv	ankle_angle_l	subtalar_angle_l	mtp_angle_l	lumbar_extension	lumbar_bending	lumbar_rotation
      5.30000000	      4.73237304	      2.82191720	     -3.00982292	      0.21804156	      1.06824270	      0.44286688	     12.97771917	     -4.77270551	    -19.76319310	    -10.78818340	      3.32972529	     -8.08273199	    -22.29457612	      7.95382315	      0.00000000	      7.98556891	     -3.84266061	     -0.41038013	     -4.82565570	     16.56631568	     -2.17557892	    -28.11603117	     -4.07569383	      0.00000000	    -26.86834927	     -4.79690115	    -10.29704843
      5.30500000	      4.70305821	      2.85865904	     -2.91557409	      0.22118368	      1.05229548	      0.44310814	     13.38439261	     -4.86351097	    -19.98839894	    -11.30651959	      3.66781434	     -8.46330521	    -23.53603493	      8.12675657	      0.00000000	      8.20050677	     -3.98823684	     -0.87337680	     -4.87108860	     16.27153976	     -2.26067664	    -29.23786976	     -3.72361579	      0.00000000	    -26.98943195	     -4.69972803	    -10.72680948
      5.31000000	      4.69214759	      2.94450608	     -2.76361050	      0.22424432	      1.03613514	      0.44328259	     13.81659760	     -5.00806419	    -20.26014072	    -12.01657661	      4.17100372	     -8.94961480	    -24.43948001	      8.36152804	      0.00000000	      8.55296355	     -4.08015394	     -1.35699664	     -5.31144430	     15.85609320	     -2.36376421	    -30.19366541	     -3.41970310	      0.00000000	    -27.14337985	     -4.63089705	    -11.24144742
      5.31500000	      4.68555700	      3.06748117	     -2.55428930	      0.22714915	      1.01967886	      0.44335521	     14.40771090	     -5.19579755	    -20.85087930	    -13.17435560	      4.86994942	     -9.70398128	    -24.45805756	      9.25958710	      0.00000000	      9.12850561	     -4.10555993	     -1.92195618	     -6.30249485	     15.40659249	     -2.41445480	    -30.51830682	     -2.87369435	      0.00000000	    -27.33946380	     -4.56751852	    -11.81219766
      5.32000000	      4.73579518	      3.22722603	     -2.33482334	      0.22995880	      1.00304746	      0.44338787	     14.96608372	     -5.40889621	    -21.23697593	    -14.51658287	      5.45546591	    -10.53769061	    -23.81524427	     10.38413034	      0.00000000	      9.79296571	     -4.06049724	     -2.62030406	     -7.72539768	     14.75191270	     -2.35914387	    -30.12533096	     -2.03086986	      0.00000000	    -27.62327713	     -4.52648351	    -12.44476035
      5.32500000	      4.78402950	      3.40915432	     -2.07081787	      0.23261735	      0.98614235	      0.44331692	     15.59473079	     -5.64292646	    -21.61307694	    -16.21913037	      6.10075478	    -11.51581885	    -22.10168160	     11.66302648	      0.00000000	     10.67006830	     -3.95322901	     -3.39488250	     -9.73959191	     13.96872387	     -2.18814553	    -28.53672797	     -0.89538008	      0.00000000	    -27.93157103	     -4.48945058	    -13.08098248
      5.33000000	      4.86652765	      3.59602004	     -1.79927326	      0.23513541	      0.96904038	      0.44312474	     16.24103596	     -5.87924611	    -21.89975838	    -18.25960572	      6.70870301	    -12.59283362	    -19.25366217	     12.95336432	      0.00000000	     11.76314811	     -3.76059744	     -4.44770262	    -12.45528556	     13.06590940	     -1.71734920	    -25.24091427	      1.10451154	      0.00000000	    -28.30337897	     -4.44523364	    -13.68663297
      5.33500000	      5.08841420	      3.81748784	     -1.42816877	      0.23745794	      0.95191637	      0.44263322	     16.86869064	     -6.19804319	    -22.54821106	    -20.84584977	      7.37104088	    -13.94478167	    -14.83290019	     14.60220081	      0.00000000	     12.85508370	     -3.43651927	     -5.34001361	    -15.62938551	     12.16206765	     -1.05152738	    -20.49877424	      3.34514453	      0.00000000	    -28.86498168	     -4.36005521	    -14.42150371
      5.34000000	      5.16993058	      3.85860788	     -1.22223031	      0.23972010	      0.93431710	      0.44251362	     17.75563528	     -6.18188511	    -22.95734737	    -23.79089371	      7.81873828	    -15.49971830	     -9.32066294	     15.97507595	      0.00000000	     14.40790842	     -3.31071860	     -6.87016106	    -19.64184597	     11.26655029	      0.09320827	    -13.79850284	      6.95485946	      0.00000000	    -29.24609457	     -4.18632818	    -14.87430267
      5.34500000	      5.24440114	      3.76755138	     -1.07146751	      0.24177801	      0.91658980	      0.44246306	     18.76397301	     -5.94826948	    -23.33095387	    -27.04042601	      7.99560100	    -17.21519238	     -3.03012197	     16.99909677	      0.00000000	     16.13631876	     -3.29698599	     -8.48177389	    -24.03849185	     10.51188012	      1.57995512	     -6.03638212	     10.89004268	      0.00000000	    -29.62919150	     -3.90384630	    -15.18408986
